# xmcd CD database file
#
# Track frame offsets:
#	150
#	19540
#	36923
#	60951
#	83854
#	107371
#	130481
#	155413
#	176295
#	197009
#	216923
#	242100
#
# Disc length: 3478 seconds
#
# Revision: 2
# Processed by: cddbd v1.5.2PL0 Copyright (c) Steve Scherf et al.
# Submitted via: CDex 1.70beta2
#
DISCID=950d940c
DTITLE=Jan Lundgren Trio (Fear, Miriam Aïda and Fredrik Kronkvist) - Jan Lundgren Trio presents Miriam Aïda and Fredrik K
DYEAR=2002
DGENRE=Jazz
TTITLE0=Ain't No Excuse
TTITLE1=September In The Rain
TTITLE2=The Good Life
TTITLE3=On A Clear Day (You Can See Forever)
TTITLE4=Sunny
TTITLE5=Time On My Hands
TTITLE6=Feeling Good
TTITLE7=Melba's Tune
TTITLE8=Right Here, Right Now
TTITLE9='Tis Autumn
TTITLE10=Close Your Eyes
TTITLE11=From This Moment On
EXTD=YEAR: 2002
EXTT0=
EXTT1=
EXTT2=
EXTT3=
EXTT4=
EXTT5=
EXTT6=
EXTT7=
EXTT8=
EXTT9=
EXTT10=
EXTT11=
PLAYORDER=
